<?xml version="1.0" encoding="UTF-8" standalone="no"?>
<svg
   viewBox="0 0 59 20"
   version="1.1"
   style="background-color:#ffffff"
   xmlns:sodipodi="http://sodipodi.sourceforge.net/DTD/sodipodi-0.dtd"
   xmlns="http://www.w3.org/2000/svg"
   xmlns:svg="http://www.w3.org/2000/svg">
  <g
     id="g1">
    <path
       d="M 0.39982365,11.346126 2.4544035,9.9463019 Q 3.3123599,11.30097 4.0348496,12.700794 4.7573392,14.078039 5.344362,15.500441 6.2700518,11.684793 7.7601867,7.9820332 9.2503215,4.2792739 11.169435,0.64424799 L 12.86277,1.4796266 Q 10.740456,5.7016754 9.0696991,10.104347 7.4215197,14.48444 6.2926296,19 l -1.806224,0.158045 Q 3.6058714,17.216354 2.5898703,15.206929 1.5964471,13.197505 0.39982365,11.346126 Z"
       id="checkmark"
       style="font-weight:bold;font-size:22.5778px;font-family:'Source Serif Pro';-inkscape-font-specification:'Source Serif Pro Bold';fill:#188000;stroke-width:0.5"
       aria-label="✓" />
    <path
       style="font-weight:600;font-size:22.5778px;font-family:'Source Sans Pro';-inkscape-font-specification:'Source Sans Pro Semi-Bold';stroke-width:0.5;paint-order:markers fill stroke"
       d="m 8.573748,15.082959 h 4.967116 l 1.151468,3.996271 h 2.754491 L 12.637752,4.313348 11.30795,7.178722 11.418546,7.564551 c 0.210726,0.827853 0.428978,1.655705 0.654756,2.483558 l 0.880534,2.98027 H 9.183349 Z"
       id="path-A"
       sodipodi:nodetypes="ccccccccccc" />
  </g>
  <path
     style="font-weight:bold;font-size:12px;font-family:'Source Sans Pro';-inkscape-font-specification:'Source Sans Pro Bold';stroke-width:1.88976;paint-order:markers fill stroke"
     d="m 15.286557,6.5263449 h 1.752 l 0.576,2.76 q 0.072,0.444 0.132,0.8760001 0.06,0.432 0.132,0.888 h 0.048 q 0.084,-0.456 0.156,-0.9 0.084,-0.4440001 0.192,-0.8640001 l 0.66,-2.76 h 1.524 l 0.672,2.76 q 0.108,0.444 0.192,0.8760001 0.084,0.432 0.18,0.888 h 0.048 q 0.084,-0.456 0.132,-0.888 0.06,-0.4320001 0.144,-0.8760001 l 0.564,-2.76 h 1.632 l -1.428,5.9520001 h -2.064 l -0.54,-2.376 q -0.096,-0.4200001 -0.168,-0.8400001 -0.072,-0.42 -0.156,-0.9 h -0.048 q -0.084,0.48 -0.156,0.9 -0.06,0.42 -0.144,0.8400001 l -0.528,2.376 h -2.016 z m 12.372019,6.0960001 q -0.636,0 -1.188,-0.204 -0.552,-0.216 -0.96,-0.612 -0.408,-0.408 -0.636,-0.984 -0.228,-0.576 -0.228,-1.3200001 0,-0.72 0.24,-1.296 0.24,-0.588 0.624,-0.984 0.396,-0.408 0.9,-0.624 0.504,-0.216 1.044,-0.216 0.636,0 1.104,0.216 0.48,0.216 0.792,0.6 0.324,0.384 0.48,0.912 0.156,0.516 0.156,1.128 0,0.24 -0.024,0.456 -0.024,0.216 -0.048,0.3240001 h -3.564 q 0.12,0.648 0.528,0.96 0.42,0.3 1.02,0.3 0.636,0 1.284,-0.396 l 0.588,1.068 q -0.456,0.312 -1.02,0.492 -0.552,0.18 -1.092,0.18 z m 0.828,-3.7680001 q 0,-0.504 -0.228,-0.816 -0.228,-0.312 -0.768,-0.312 -0.42,0 -0.744,0.276 -0.312,0.276 -0.408,0.852 z m 4.475996,3.7680001 q -0.588,0 -1.212,-0.228 -0.612,-0.228 -1.068,-0.6 l 0.792,-1.104 q 0.408,0.312 0.78,0.468 0.372,0.156 0.756,0.156 0.396,0 0.576,-0.132 0.18,-0.132 0.18,-0.372 0,-0.144 -0.108,-0.252 -0.096,-0.12 -0.276,-0.216 -0.168,-0.096 -0.384,-0.168 -0.216,-0.084 -0.444,-0.1800001 -0.276,-0.108 -0.552,-0.252 -0.276,-0.144 -0.504,-0.348 -0.228,-0.216 -0.372,-0.492 -0.144,-0.288 -0.144,-0.66 0,-0.408 0.156,-0.756 0.168,-0.348 0.468,-0.588 0.3,-0.24 0.72,-0.372 0.42,-0.144 0.936,-0.144 0.684,0 1.2,0.24 0.516,0.228 0.9,0.516 l -0.792,1.056 q -0.324,-0.24 -0.636,-0.372 -0.312,-0.132 -0.624,-0.132 -0.672,0 -0.672,0.468 0,0.144 0.096,0.252 0.096,0.096 0.252,0.18 0.168,0.084 0.372,0.168 0.216,0.072 0.444,0.156 0.288,0.108 0.564,0.252 0.288,0.132 0.516,0.336 0.24,0.204 0.384,0.5040001 0.144,0.288 0.144,0.696 0,0.408 -0.156,0.756 -0.156,0.348 -0.468,0.612 -0.312,0.252 -0.768,0.408 -0.456,0.144 -1.056,0.144 z m 6.120009,0 q -0.564,0 -1.092,-0.204 -0.528,-0.216 -0.936,-0.612 -0.396,-0.396 -0.636,-0.972 -0.24,-0.588 -0.24,-1.3320001 0,-0.744 0.24,-1.32 0.24,-0.588 0.636,-0.984 0.408,-0.396 0.936,-0.6 0.528,-0.216 1.092,-0.216 0.564,0 1.08,0.216 0.528,0.204 0.924,0.6 0.408,0.396 0.648,0.984 0.24,0.576 0.24,1.32 0,0.7440001 -0.24,1.3320001 -0.24,0.576 -0.648,0.972 -0.396,0.396 -0.924,0.612 -0.516,0.204 -1.08,0.204 z m 0,-1.428 q 0.54,0 0.816,-0.456 0.276,-0.456 0.276,-1.2360001 0,-0.78 -0.276,-1.236 -0.276,-0.456 -0.816,-0.456 -0.552,0 -0.828,0.456 -0.264,0.456 -0.264,1.236 0,0.7800001 0.264,1.2360001 0.276,0.456 0.828,0.456 z m 4.104004,-4.6680001 h 1.44 l 0.12,0.768 h 0.048 q 0.372,-0.372 0.792,-0.636 0.42,-0.276 1.008,-0.276 0.636,0 1.02,0.264 0.396,0.252 0.624,0.732 0.396,-0.408 0.828,-0.696 0.444,-0.3 1.044,-0.3 0.96,0 1.404,0.648 0.456,0.636 0.456,1.752 v 3.6960001 h -1.764 V 9.0103449 q 0,-0.648 -0.18,-0.888 -0.168,-0.24 -0.552,-0.24 -0.444,0 -1.02,0.576 v 4.0200001 h -1.764 V 9.0103449 q 0,-0.648 -0.18,-0.888 -0.168,-0.24 -0.552,-0.24 -0.456,0 -1.008,0.576 v 4.0200001 h -1.764 z m 12.948004,6.0960001 q -0.636,0 -1.188,-0.204 -0.552,-0.216 -0.96,-0.612 -0.408,-0.408 -0.636,-0.984 -0.228,-0.576 -0.228,-1.3200001 0,-0.72 0.24,-1.296 0.24,-0.588 0.624,-0.984 0.396,-0.408 0.9,-0.624 0.504,-0.216 1.044,-0.216 0.636,0 1.104,0.216 0.48,0.216 0.792,0.6 0.324,0.384 0.48,0.912 0.156,0.516 0.156,1.128 0,0.24 -0.024,0.456 -0.024,0.216 -0.048,0.3240001 h -3.564 q 0.12,0.648 0.528,0.96 0.42,0.3 1.02,0.3 0.636,0 1.284,-0.396 l 0.588,1.068 q -0.456,0.312 -1.02,0.492 -0.552,0.18 -1.092,0.18 z m 0.828,-3.7680001 q 0,-0.504 -0.228,-0.816 -0.228,-0.312 -0.768,-0.312 -0.42,0 -0.744,0.276 -0.312,0.276 -0.408,0.852 z"
     id="text1"
     aria-label="wesome" />
  <path
     style="font-size:8px;font-family:'Source Sans Pro';-inkscape-font-specification:'Source Sans Pro';stroke-width:1.88976;paint-order:markers fill stroke"
     d="m 19.693221,18.95218 q -0.416,0 -0.792,-0.152 -0.376,-0.152 -0.656,-0.384 l 0.328,-0.44 q 0.256,0.208 0.52,0.336 0.272,0.128 0.624,0.128 0.384,0 0.576,-0.176 0.192,-0.176 0.192,-0.432 0,-0.152 -0.08,-0.264 -0.08,-0.112 -0.208,-0.192 -0.12,-0.088 -0.28,-0.152 -0.16,-0.064 -0.32,-0.128 -0.208,-0.072 -0.416,-0.16 -0.208,-0.096 -0.376,-0.224 -0.16,-0.136 -0.264,-0.312 -0.104,-0.176 -0.104,-0.424 0,-0.232 0.088,-0.432 0.096,-0.208 0.264,-0.352 0.176,-0.152 0.424,-0.232 0.248,-0.088 0.56,-0.088 0.368,0 0.672,0.128 0.312,0.128 0.536,0.312 l -0.312,0.416 q -0.2,-0.152 -0.416,-0.248 -0.216,-0.096 -0.472,-0.096 -0.368,0 -0.544,0.168 -0.168,0.168 -0.168,0.392 0,0.136 0.072,0.24 0.072,0.096 0.192,0.176 0.12,0.072 0.272,0.136 0.16,0.056 0.328,0.12 0.208,0.08 0.416,0.168 0.216,0.088 0.384,0.224 0.168,0.128 0.272,0.32 0.112,0.192 0.112,0.464 0,0.24 -0.096,0.448 -0.088,0.208 -0.272,0.368 -0.176,0.16 -0.448,0.248 -0.264,0.096 -0.608,0.096 z m 3.352005,0 q -0.416,0 -0.792,-0.152 -0.376,-0.152 -0.656,-0.384 l 0.328,-0.44 q 0.256,0.208 0.52,0.336 0.272,0.128 0.624,0.128 0.384,0 0.576,-0.176 0.192,-0.176 0.192,-0.432 0,-0.152 -0.08,-0.264 -0.08,-0.112 -0.208,-0.192 -0.12,-0.088 -0.28,-0.152 -0.16,-0.064 -0.32,-0.128 -0.208,-0.072 -0.416,-0.16 -0.208,-0.096 -0.376,-0.224 -0.16,-0.136 -0.264,-0.312 -0.104,-0.176 -0.104,-0.424 0,-0.232 0.088,-0.432 0.096,-0.208 0.264,-0.352 0.176,-0.152 0.424,-0.232 0.248,-0.088 0.56,-0.088 0.368,0 0.672,0.128 0.312,0.128 0.536,0.312 l -0.312,0.416 q -0.2,-0.152 -0.416,-0.248 -0.216,-0.096 -0.472,-0.096 -0.368,0 -0.544,0.168 -0.168,0.168 -0.168,0.392 0,0.136 0.072,0.24 0.072,0.096 0.192,0.176 0.12,0.072 0.272,0.136 0.16,0.056 0.328,0.12 0.208,0.08 0.416,0.168 0.216,0.088 0.384,0.224 0.168,0.128 0.272,0.32 0.112,0.192 0.112,0.464 0,0.24 -0.096,0.448 -0.088,0.208 -0.272,0.368 -0.176,0.16 -0.448,0.248 -0.264,0.096 -0.608,0.096 z m 3.912005,0 q -0.392,0 -0.736,-0.136 -0.336,-0.144 -0.592,-0.4 -0.248,-0.264 -0.392,-0.64 -0.144,-0.376 -0.144,-0.856 0,-0.48 0.144,-0.856 0.152,-0.384 0.392,-0.648 0.248,-0.264 0.56,-0.4 0.312,-0.144 0.648,-0.144 0.368,0 0.656,0.128 0.296,0.128 0.488,0.368 0.2,0.24 0.304,0.576 0.104,0.336 0.104,0.752 0,0.104 -0.008,0.208 0,0.096 -0.016,0.168 h -2.624 q 0.04,0.624 0.384,0.992 0.352,0.36 0.912,0.36 0.28,0 0.512,-0.08 0.24,-0.088 0.456,-0.224 l 0.232,0.432 q -0.256,0.16 -0.568,0.28 -0.312,0.12 -0.712,0.12 z m 0.856,-2.352 q 0,-0.592 -0.256,-0.896 -0.248,-0.312 -0.704,-0.312 -0.208,0 -0.4,0.08 -0.184,0.08 -0.336,0.24 -0.152,0.152 -0.256,0.376 -0.096,0.224 -0.128,0.512 z m 1.536002,-1.632 h 0.544 l 0.056,0.704 h 0.024 q 0.2,-0.368 0.48,-0.584 0.288,-0.216 0.624,-0.216 0.232,0 0.416,0.08 l -0.128,0.576 q -0.096,-0.032 -0.176,-0.048 -0.08,-0.016 -0.2,-0.016 -0.248,0 -0.52,0.2 -0.264,0.2 -0.464,0.696 v 2.496 h -0.656 z m 4.000001,3.984 q -0.312,0 -0.528,-0.096 -0.208,-0.096 -0.344,-0.264 -0.128,-0.168 -0.184,-0.408 -0.056,-0.24 -0.056,-0.528 v -2.152 h -0.576 v -0.496 l 0.608,-0.04 0.08,-1.088 h 0.552 v 1.088 h 1.048 v 0.536 h -1.048 v 2.16 q 0,0.36 0.128,0.56 0.136,0.192 0.472,0.192 0.104,0 0.224,-0.032 0.12,-0.032 0.216,-0.072 l 0.128,0.496 q -0.16,0.056 -0.352,0.096 -0.184,0.048 -0.368,0.048 z m 1.479995,-3.984 h 0.656 v 3.888 h -0.656 z m 0.336,-0.8 q -0.192,0 -0.328,-0.12 -0.128,-0.12 -0.128,-0.304 0,-0.192 0.128,-0.304 0.136,-0.12 0.328,-0.12 0.192,0 0.32,0.12 0.136,0.112 0.136,0.304 0,0.184 -0.136,0.304 -0.128,0.12 -0.32,0.12 z m 3.144003,4.784 q -0.36,0 -0.688,-0.136 -0.32,-0.136 -0.568,-0.392 -0.248,-0.264 -0.4,-0.64 -0.144,-0.384 -0.144,-0.864 0,-0.488 0.144,-0.864 0.152,-0.384 0.4,-0.648 0.248,-0.264 0.568,-0.4 0.328,-0.136 0.688,-0.136 0.36,0 0.68,0.136 0.328,0.136 0.576,0.4 0.248,0.264 0.392,0.648 0.152,0.376 0.152,0.864 0,0.48 -0.152,0.864 -0.144,0.376 -0.392,0.64 -0.248,0.256 -0.576,0.392 -0.32,0.136 -0.68,0.136 z m 0,-0.544 q 0.248,0 0.456,-0.104 0.208,-0.112 0.352,-0.304 0.152,-0.2 0.232,-0.472 0.08,-0.272 0.08,-0.608 0,-0.336 -0.08,-0.608 -0.08,-0.28 -0.232,-0.48 -0.144,-0.2 -0.352,-0.304 -0.208,-0.112 -0.456,-0.112 -0.248,0 -0.456,0.112 -0.208,0.104 -0.36,0.304 -0.144,0.2 -0.224,0.48 -0.08,0.272 -0.08,0.608 0,0.336 0.08,0.608 0.08,0.272 0.224,0.472 0.152,0.192 0.36,0.304 0.208,0.104 0.456,0.104 z m 2.823998,-3.44 h 0.544 l 0.056,0.56 h 0.024 q 0.28,-0.28 0.584,-0.464 0.312,-0.192 0.72,-0.192 0.616,0 0.896,0.384 0.288,0.384 0.288,1.136 v 2.464 h -0.656 v -2.376 q 0,-0.552 -0.176,-0.792 -0.176,-0.248 -0.56,-0.248 -0.304,0 -0.536,0.152 -0.232,0.152 -0.528,0.448 v 2.816 h -0.656 z m 5.392007,3.984 q -0.416,0 -0.792,-0.152 -0.376,-0.152 -0.656,-0.384 l 0.328,-0.44 q 0.256,0.208 0.52,0.336 0.272,0.128 0.624,0.128 0.384,0 0.576,-0.176 0.192,-0.176 0.192,-0.432 0,-0.152 -0.08,-0.264 -0.08,-0.112 -0.208,-0.192 -0.12,-0.088 -0.28,-0.152 -0.16,-0.064 -0.32,-0.128 -0.208,-0.072 -0.416,-0.16 -0.208,-0.096 -0.376,-0.224 -0.16,-0.136 -0.264,-0.312 -0.104,-0.176 -0.104,-0.424 0,-0.232 0.088,-0.432 0.096,-0.208 0.264,-0.352 0.176,-0.152 0.424,-0.232 0.248,-0.088 0.56,-0.088 0.368,0 0.672,0.128 0.312,0.128 0.536,0.312 l -0.312,0.416 q -0.2,-0.152 -0.416,-0.248 -0.216,-0.096 -0.472,-0.096 -0.368,0 -0.544,0.168 -0.168,0.168 -0.168,0.392 0,0.136 0.072,0.24 0.072,0.096 0.192,0.176 0.12,0.072 0.272,0.136 0.16,0.056 0.328,0.12 0.208,0.08 0.416,0.168 0.216,0.088 0.384,0.224 0.168,0.128 0.272,0.32 0.112,0.192 0.112,0.464 0,0.24 -0.096,0.448 -0.088,0.208 -0.272,0.368 -0.176,0.16 -0.448,0.248 -0.264,0.096 -0.608,0.096 z"
     id="text2"
     aria-label="ssertions" />
</svg>
